<?xml version="1.0" encoding="UTF-8"?>
<svg version="1.1" xmlns="http://www.w3.org/2000/svg" width="384" height="384">
<path d="M0 0 C0.84525468 -0.00384115 1.69050936 -0.00768229 2.56137782 -0.01163983 C3.49015607 -0.01077335 4.41893431 -0.00990687 5.37585735 -0.00901413 C6.85568168 -0.01347081 6.85568168 -0.01347081 8.36540145 -0.01801753 C11.68641538 -0.02672108 15.00739333 -0.02821418 18.32841778 -0.02970505 C20.7033321 -0.03433203 23.07824567 -0.03935652 25.45315838 -0.04475021 C31.91598609 -0.05788729 38.37880689 -0.06435823 44.84164548 -0.06876087 C48.87685131 -0.07152327 52.91205474 -0.07576062 56.94725895 -0.08026505 C68.11896425 -0.09245765 79.29066764 -0.10275702 90.46237946 -0.10614014 C91.53495024 -0.10646949 91.53495024 -0.10646949 92.62918912 -0.10680549 C93.34594947 -0.10702377 94.06270983 -0.10724204 94.8011902 -0.10746694 C96.25362543 -0.1079104 97.70606067 -0.10835697 99.1584959 -0.10880661 C100.23918351 -0.10913875 100.23918351 -0.10913875 101.3417032 -0.10947761 C113.0160347 -0.11342573 124.69030379 -0.1308802 136.36461119 -0.15416613 C148.34964915 -0.17787896 160.33465579 -0.19034195 172.31971759 -0.19150805 C179.0492179 -0.19242485 185.7786369 -0.19817824 192.50811481 -0.21632767 C198.83722263 -0.23277139 205.16617591 -0.23498179 211.49529743 -0.22618866 C213.81970412 -0.22541632 216.144119 -0.22978683 218.46850491 -0.23964691 C221.63906107 -0.25230886 224.80906516 -0.24652064 227.97961712 -0.23606491 C229.36274624 -0.24814952 229.36274624 -0.24814952 230.77381736 -0.26047826 C238.16177888 -0.20340784 243.489132 1.89390182 248.8682127 7.13142776 C252.8575483 13.04934307 253.44337481 18.38381338 253.37614727 25.37874222 C253.38550721 26.88735935 253.38550721 26.88735935 253.39505625 28.42645359 C253.41095892 31.7827801 253.39839221 35.13837764 253.38579082 38.49470901 C253.39121313 40.90652768 253.39833639 43.31834304 253.40703106 45.73015213 C253.42336311 51.59259587 253.42099192 57.45485161 253.4093805 63.31729007 C253.40033268 68.08344753 253.39912798 72.84954762 253.40347576 77.61571121 C253.40408869 78.29505637 253.40470163 78.97440154 253.40533313 79.67433292 C253.40661208 81.05457681 253.40790894 82.43482069 253.4092235 83.81506455 C253.4206191 96.74586328 253.40753165 109.67654843 253.38602203 122.60732853 C253.36815194 133.69321795 253.37125633 144.77893981 253.38969707 155.8648262 C253.41112186 168.75057068 253.41952056 181.63621571 253.40724802 194.52197552 C253.40597388 195.89703177 253.40471639 197.27208804 253.40347576 198.64714432 C253.40255011 199.66187261 253.40255011 199.66187261 253.40160576 200.69710046 C253.39815767 205.45539547 253.40396949 210.21362718 253.41339397 214.97191238 C253.42580907 221.38075091 253.41692097 227.78934778 253.39381695 234.19815826 C253.38853144 236.54913305 253.39004089 238.90013448 253.39886761 241.25109863 C253.40981236 244.46246182 253.3960712 247.67281436 253.37614727 250.88411331 C253.3895316 252.2767337 253.3895316 252.2767337 253.40318632 253.69748783 C253.32446368 260.24760253 252.00976807 265.73608156 247.45637846 270.65731716 C241.33886262 276.06689356 235.92198009 276.42502818 228.13351727 276.3988533 C226.65324636 276.40564997 226.65324636 276.40564997 225.143071 276.41258395 C221.83289824 276.4252546 218.52288946 276.42360584 215.21269512 276.42195511 C212.84072946 276.42793869 210.46876576 276.43474384 208.09680462 276.44231033 C202.32023179 276.45815757 196.5437088 276.46441949 190.76711532 276.46553509 C186.07050065 276.46648602 181.37389942 276.47059855 176.67728901 276.47693634 C163.35566636 276.49454666 150.0340759 276.50377559 136.71244153 276.50227539 C135.9945174 276.50219548 135.27659327 276.50211557 134.53691387 276.50203323 C133.4587097 276.50191059 133.4587097 276.50191059 132.35872362 276.50178547 C120.71170975 276.50097272 109.06482524 276.52010825 97.41784879 276.54830997 C85.45307135 276.57705211 73.48835697 276.59084952 61.52354413 276.58912241 C54.80852057 276.58845895 48.09363261 276.5939319 41.37864017 276.61547852 C35.06258685 276.63483466 28.74681996 276.63500303 22.43075657 276.62044525 C20.11363844 276.61835281 17.79650251 276.62308385 15.47941494 276.63516617 C12.31389269 276.65060243 9.14936001 276.64132037 5.98385906 276.62590408 C5.0689629 276.63619121 4.15406675 276.64647834 3.21144646 276.65707719 C-3.30224335 276.5870744 -8.76627705 275.24444398 -13.65819103 270.71954095 C-19.10646806 264.5561224 -19.42514133 259.09032283 -19.39921284 251.24487686 C-19.40374395 250.24169538 -19.40827506 249.2385139 -19.41294348 248.20493299 C-19.4256156 244.83948288 -19.42396528 241.47419403 -19.42231464 238.10872269 C-19.42829814 235.6973487 -19.43510327 233.28597663 -19.44266987 230.87460709 C-19.45851787 225.00178316 -19.46477906 219.12899711 -19.46589462 213.25615617 C-19.46684551 208.48135699 -19.47095782 203.70657104 -19.47729588 198.93177605 C-19.49490642 185.38880339 -19.50413508 171.84586241 -19.50263493 158.30287822 C-19.50255502 157.57300612 -19.5024751 156.84313401 -19.50239277 156.09114456 C-19.50231101 155.36037932 -19.50222925 154.62961408 -19.50214501 153.87670443 C-19.50133224 142.03569568 -19.52046799 130.19481417 -19.5486695 118.35384222 C-19.57741051 106.19018275 -19.59120912 94.02658531 -19.58948195 81.86289102 C-19.58881845 75.03608566 -19.59429308 68.20941368 -19.61583805 61.38263893 C-19.63597308 54.96155442 -19.63536366 48.54067875 -19.62080479 42.11957741 C-19.61871214 39.76375798 -19.62344461 37.40792104 -19.6355257 35.05213165 C-19.65095897 31.83406604 -19.6416818 28.61697421 -19.62626362 25.3989296 C-19.63655074 24.46846965 -19.64683787 23.53800969 -19.65743673 22.57935399 C-19.58426446 15.65989797 -18.05589823 10.08921367 -13.09663105 5.07283401 C-12.42760761 4.61779495 -11.75858418 4.16275589 -11.0692873 3.69392776 C-10.39768574 3.22084183 -9.72608418 2.74775589 -9.03413105 2.26033401 C-5.98744054 0.45233903 -3.46659038 0.00591326 0 0 Z M21.8682127 24.13142776 C21.8682127 74.62142776 21.8682127 125.11142776 21.8682127 177.13142776 C52.8882127 177.13142776 83.9082127 177.13142776 115.8682127 177.13142776 C115.8682127 168.22142776 115.8682127 159.31142776 115.8682127 150.13142776 C97.0582127 150.13142776 78.2482127 150.13142776 58.8682127 150.13142776 C58.8682127 108.55142776 58.8682127 66.97142776 58.8682127 24.13142776 C46.6582127 24.13142776 34.4482127 24.13142776 21.8682127 24.13142776 Z " fill="#000000" transform="translate(75.13178730010986,53.86857223510742)"/>
<path d="M0 0 C1.13814181 -0.00768229 2.27628363 -0.01536458 3.44891459 -0.02327967 C5.31746384 -0.02068022 5.31746384 -0.02068022 7.22376156 -0.01802826 C8.56421291 -0.02319787 9.90466119 -0.02922484 11.24510521 -0.03603506 C14.92756977 -0.05215503 18.60995631 -0.05575308 22.29245198 -0.05723 C26.26470375 -0.0609347 30.23691521 -0.07603135 34.20914364 -0.08950043 C42.89532106 -0.11665541 51.58148 -0.12871511 60.2676928 -0.13752174 C65.6936245 -0.14304943 71.11954908 -0.15152475 76.54547596 -0.16053009 C91.5740775 -0.18491554 106.60267335 -0.20551309 121.63129425 -0.21228027 C122.59304117 -0.21271941 123.55478809 -0.21315854 124.54567885 -0.21361098 C125.9917194 -0.21426581 125.9917194 -0.21426581 127.46697289 -0.21493387 C129.42040257 -0.2158208 131.37383225 -0.21671393 133.32726192 -0.21761322 C134.29622711 -0.21805608 135.26519229 -0.21849894 136.26352005 -0.21895522 C151.95590756 -0.22684724 167.64810909 -0.26174306 183.34042478 -0.30833226 C199.45914531 -0.35580025 215.5777726 -0.38068589 231.69656414 -0.38301611 C240.74354997 -0.38484752 249.79029358 -0.39629865 258.83721256 -0.43265533 C266.54287043 -0.46351307 274.24821125 -0.47366592 281.95391918 -0.45717913 C285.88267149 -0.44938492 289.81078592 -0.45113022 293.73945904 -0.47929382 C297.34303207 -0.50488953 300.94549186 -0.50227807 304.54906463 -0.4781124 C306.45572702 -0.47238705 308.36240971 -0.49598328 310.26891714 -0.52095652 C320.03391948 -0.40966273 327.78065589 2.39361137 335.26451778 8.76285553 C335.94514278 9.58785553 336.62576778 10.41285553 337.32701778 11.26285553 C338.17264278 12.14973053 339.01826778 13.03660553 339.88951778 13.95035553 C345.64300409 20.97432777 347.44689992 30.06768668 347.45844555 38.93394661 C347.46228669 40.04621231 347.46612784 41.158478 347.47008538 42.30444872 C347.4692189 43.5161078 347.46835242 44.72776687 347.46745968 45.97614288 C347.47191636 47.918987 347.47191636 47.918987 347.47646308 49.90108049 C347.48451173 53.49006149 347.48632146 57.07902247 347.48706055 60.66801143 C347.48891484 64.54138774 347.49646408 68.41475375 347.50319576 72.28812408 C347.51676464 80.7552452 347.52280161 89.22236157 347.52720642 97.68949175 C347.52997141 102.97924048 347.53420924 108.26898739 347.53871059 113.55873489 C347.5509016 128.21250608 347.5612011 142.86627581 347.56458569 157.52005196 C347.56480525 158.45752286 347.56502482 159.39499377 347.56525104 160.36087289 C347.56546932 161.30055224 347.56568759 162.24023158 347.56591249 163.20838606 C347.56635595 165.1124475 347.56680251 167.01650894 347.56725216 168.92057037 C347.56747359 169.86504514 347.56769502 170.8095199 347.56792316 171.78261511 C347.57186969 187.08041703 347.58932004 202.37817127 347.61261168 217.67595477 C347.63634707 233.39241703 347.64878854 249.10885539 347.6499536 264.82533586 C347.65086916 273.64531131 347.65659127 282.46522465 347.67477322 291.28518295 C347.69020377 298.79678206 347.69527729 306.30829984 347.68703511 313.81991179 C347.68313899 317.64925529 347.68400715 321.47843516 347.69809246 325.30775833 C347.71325383 329.46784471 347.7049342 333.62756539 347.69451046 337.78766632 C347.70659507 339.58507843 347.70659507 339.58507843 347.71892381 341.4188019 C347.6455858 353.97127394 345.39104137 364.59242959 336.82701778 374.01285553 C336.00201778 374.75535553 335.17701778 375.49785553 334.32701778 376.26285553 C333.58451778 376.94348053 332.84201778 377.62410553 332.07701778 378.32535553 C323.94346848 384.05581072 316.76554735 384.84437395 306.94925594 384.78424835 C305.60534723 384.79029798 304.26144541 384.79808026 302.91755563 384.80743349 C299.24402406 384.82792707 295.57088432 384.82364725 291.89732111 384.8150723 C287.92784513 384.81012558 283.95846201 384.82818129 279.98902035 384.84314728 C272.2197083 384.86861223 264.45053459 384.87223228 256.68118783 384.86754675 C250.36379313 384.86397664 244.04644033 384.86748773 237.72905064 384.87599564 C236.82896696 384.87718601 235.92888328 384.87837639 235.00152433 384.87960284 C233.17282491 384.88202642 231.34412549 384.88445469 229.51542608 384.8868876 C212.37546337 384.90862774 195.2355794 384.90431891 178.09561227 384.8921179 C162.42933175 384.88178202 146.76330005 384.90428568 131.09706875 384.94231434 C114.99628565 384.98109705 98.89562019 384.99757852 82.79479009 384.99006784 C73.76129741 384.98624746 64.72801645 384.99118285 55.69456196 385.01949692 C48.00361679 385.04335983 40.31301363 385.04609543 32.6220636 385.02191658 C28.7014012 385.01016292 24.78136378 385.00787152 20.86074352 385.03192139 C17.26470424 385.05372299 13.66980852 385.04733777 10.07382182 385.01939802 C8.17134791 385.01164791 6.26882239 385.03313208 4.36647004 385.05599177 C-5.38651339 384.9341727 -13.1358008 382.12428652 -20.61048222 375.76285553 C-21.63141972 374.52535553 -21.63141972 374.52535553 -22.67298222 373.26285553 C-23.51860722 372.37598053 -24.36423222 371.48910553 -25.23548222 370.57535553 C-30.98896852 363.55138329 -32.79286435 354.45802438 -32.80440998 345.59176445 C-32.80825113 344.47949875 -32.81209227 343.36723305 -32.81604981 342.22126234 C-32.81518333 341.00960326 -32.81431685 339.79794419 -32.81342411 338.54956818 C-32.81639523 337.25433877 -32.81936635 335.95910936 -32.82242751 334.62463057 C-32.83047616 331.03564957 -32.83228589 327.44668859 -32.83302498 323.85769963 C-32.83487927 319.98432332 -32.84242852 316.11095731 -32.84916019 312.23758698 C-32.86272907 303.77046586 -32.86876604 295.30334949 -32.87317085 286.83621931 C-32.87593584 281.54647058 -32.88017367 276.25672367 -32.88467503 270.96697617 C-32.89686603 256.31320498 -32.90716553 241.65943525 -32.91055012 227.0056591 C-32.91076968 226.0681882 -32.91098925 225.13071729 -32.91121547 224.16483817 C-32.91143375 223.22515882 -32.91165202 222.28547948 -32.91187692 221.317325 C-32.91232038 219.41326356 -32.91276694 217.50920212 -32.91321659 215.60514069 C-32.91343802 214.66066592 -32.91365945 213.71619116 -32.91388759 212.74309595 C-32.91783412 197.44529403 -32.93528447 182.14753979 -32.95857611 166.84975629 C-32.9823115 151.13329403 -32.99475297 135.41685567 -32.99591804 119.7003752 C-32.99683359 110.88039975 -33.0025557 102.06048641 -33.02073765 93.24052811 C-33.0361682 85.728929 -33.04124172 78.21741122 -33.03299955 70.70579927 C-33.02910342 66.87645577 -33.02997158 63.0472759 -33.04405689 59.21795273 C-33.05921826 55.05786634 -33.05089864 50.89814567 -33.04047489 46.73804474 C-33.0485313 45.53977 -33.0565877 44.34149525 -33.06488824 43.10690916 C-33.00035655 32.06171902 -31.33162042 22.26044576 -24.67298222 13.26285553 C-24.11610722 12.39660553 -23.55923222 11.53035553 -22.98548222 10.63785553 C-17.01168641 4.50260579 -8.60770888 0.02185439 0 0 Z M22.32701778 48.26285553 C21.46076778 48.90223053 20.59451778 49.54160553 19.70201778 50.20035553 C13.40064795 55.67259775 10.11906661 62.61946802 8.95738232 70.89652669 C8.820315 73.58752123 8.79790928 76.25254891 8.82581234 78.94686127 C8.82027794 79.9633364 8.81474355 80.97981153 8.80904144 82.02708894 C8.79552846 85.40175057 8.81035341 88.77566055 8.8253088 92.1503067 C8.82152231 94.58227094 8.81601956 97.01423301 8.80893612 99.44618988 C8.79645321 105.34633127 8.80251714 111.24627666 8.8176117 117.14639565 C8.83453558 124.02518481 8.83125367 130.90392133 8.82751762 137.78272489 C8.82164971 150.05861578 8.83577028 162.33440384 8.86046505 174.61026764 C8.88439842 186.50906983 8.89146184 198.40773475 8.88097286 210.3065567 C8.8695539 223.28350863 8.86764445 236.2603972 8.88207096 249.23734838 C8.88359671 250.62190679 8.88511707 252.00646521 8.88663197 253.39102364 C8.88738978 254.07215242 8.88814759 254.75328121 8.88892837 255.45505026 C8.89366241 260.24492448 8.89182614 265.03477031 8.88756657 269.82464409 C8.88211502 276.27371072 8.8929187 282.72262972 8.91452122 289.17166328 C8.92008197 291.53715246 8.92056093 293.90265989 8.91556835 296.26815033 C8.90960495 299.49891054 8.92214146 302.72909255 8.93933773 305.95980072 C8.93332768 306.89394985 8.92731764 307.82809898 8.92112547 308.79055566 C9.01303361 318.29752646 12.29391413 325.90873369 18.32701778 333.26285553 C27.05696177 341.5770879 37.1633356 343.41456155 48.81374264 343.40329742 C49.77397189 343.40626855 50.73420115 343.40923967 51.72352827 343.41230083 C54.94374323 343.420978 58.16392097 343.42249526 61.38414669 343.42398834 C63.6921309 343.42861725 66.00011434 343.43364201 68.30809689 343.43903351 C74.58106632 343.4521535 80.85402505 343.45860183 87.12700605 343.46304417 C91.04735012 343.46597587 94.96769127 343.47008089 98.88803387 343.47454834 C109.75184744 343.48665646 120.61565779 343.49703845 131.47947788 343.50042343 C132.52184808 343.50075278 132.52184808 343.50075278 133.58527627 343.50108878 C134.28181344 343.50130706 134.97835061 343.50152534 135.69599497 343.50175023 C137.10734503 343.50219369 138.51869508 343.50264025 139.93004513 343.5030899 C140.98015337 343.50342205 140.98015337 343.50342205 142.05147593 343.5037609 C153.38604399 343.5077059 164.72054765 343.52515152 176.05509086 343.54844943 C187.70460377 343.57220051 199.35408123 343.58436937 211.0036186 343.58579135 C217.53930875 343.58683857 224.07490805 343.59272873 230.61057568 343.61061096 C236.76161851 343.62711324 242.91250242 343.62923655 249.06355953 343.62047195 C251.31652789 343.61970271 253.56950486 343.62402937 255.82245159 343.63393021 C258.90795227 343.64669045 261.99289354 343.64075055 265.07839108 343.63034821 C266.40260899 343.64243281 266.40260899 343.64243281 267.75357878 343.65476155 C276.67669344 343.58483412 285.19700135 341.8650113 292.32701778 336.26285553 C293.56451778 335.42754303 293.56451778 335.42754303 294.82701778 334.57535553 C300.78751117 329.06189915 304.84252712 322.18060021 305.51218188 314.00119412 C305.5871099 311.35219316 305.598379 308.70991959 305.5877142 306.05986786 C305.59153974 305.04681043 305.59536529 304.03375299 305.59930676 302.98999685 C305.60960684 299.60311341 305.60565026 296.21640045 305.60167599 292.82950592 C305.60602409 290.39813327 305.61120756 287.966762 305.61716366 285.53539276 C305.62916357 279.62139577 305.63170642 273.7074409 305.6293634 267.79343636 C305.62757837 262.98531421 305.62933383 258.17720582 305.63358784 253.36908531 C305.63448062 252.34153825 305.63448062 252.34153825 305.63539144 251.29323266 C305.63660322 249.90147325 305.63781736 248.50971384 305.63903382 247.11795443 C305.64990292 234.07464929 305.64774976 221.03137003 305.64164897 207.98806345 C305.63647951 196.06313907 305.64773712 184.13829637 305.66674719 172.21338815 C305.68613186 159.95926571 305.69438054 147.7051819 305.69062394 135.45104402 C305.68871296 128.57511134 305.69118946 121.69924818 305.70533848 114.82332802 C305.71850852 108.35791864 305.71598372 101.89263186 305.70292759 95.4272213 C305.70055978 93.05527822 305.70330379 90.68332366 305.71155071 88.31139374 C305.72200208 85.07168128 305.71392994 81.83251952 305.70123959 78.59282684 C305.70861387 77.65594924 305.71598816 76.71907163 305.7235859 75.75380379 C305.64528907 66.24183965 302.37305676 58.61614618 296.32701778 51.26285553 C287.59187527 43.09585237 278.37756416 41.11128409 266.75763607 41.12241364 C265.30398318 41.11795695 265.30398318 41.11795695 263.82096356 41.11341023 C260.57077563 41.10473255 257.32062458 41.10321576 254.07042599 41.10172272 C251.74111509 41.09709388 249.41180495 41.09206912 247.08249569 41.08667755 C240.751744 41.07355765 234.42100292 41.06710934 228.09023976 41.06266689 C224.13439145 41.05973542 220.17854602 41.05563045 216.22269917 41.05116272 C205.26194834 41.03905506 194.30120004 41.0286727 183.34044266 41.02528763 C182.63934241 41.02506806 181.93824215 41.0248485 181.21589644 41.02462228 C180.16178265 41.02429486 180.16178265 41.02429486 179.08637363 41.02396083 C177.66243795 41.02351737 176.23850228 41.02307081 174.81456661 41.02262115 C173.75509306 41.02228901 173.75509306 41.02228901 172.67421599 41.02195016 C161.23550823 41.01800415 149.79686424 41.00055517 138.3581811 40.97726163 C126.60358299 40.95351875 114.84901685 40.94108443 103.09439439 40.93991971 C96.49893273 40.93887204 89.90356104 40.93297217 83.30812168 40.9151001 C77.1020904 40.89861042 70.89621664 40.8964684 64.69017124 40.90523911 C62.41581964 40.906009 60.14145954 40.90167307 57.86712933 40.89178085 C54.75500558 40.87904145 51.6434381 40.8849493 48.53131771 40.89536285 C47.63781103 40.88730645 46.74430435 40.87925004 45.82372171 40.87094951 C37.0673481 40.93916659 29.35459016 42.86960231 22.32701778 48.26285553 Z " fill="#000000" transform="translate(34.67298221588135,-0.26285552978515625)"/>
</svg>
